<svg width="838" height="161" viewBox="0 0 838 161" xmlns="http://www.w3.org/2000/svg"><title>wimdu-logo</title><g fill="none" fill-rule="evenodd"><path d="M91.9 52.4l-21.5 59L34.1 0H0l53.3 158.5h32l23.1-61.7-16.5-44.4zM247.3 0h32.3v158.5h-32.3V0zm149.2 158.9l-32-95.5-25.9 95.1h-32.8L348.7 0h26.6l33.4 100.5L442 0h26.6l42.9 158.5h-32.9l-25.7-95.1-32.1 95.5h-24.3z" fill="#006ABA"/><path d="M190.1 0l-36.4 111.5-21.6-59.4H98.8l40 106.4h32L224.1 0h-34z" fill="#FCAF1A"/><path d="M592.5 0h-55.1v158.5h55c48.8 0 84.2-33.4 84.2-79.6C676.5 33.2 641.1 0 592.5 0m0 128.6h-22.7V29.8h22.7c29.7 0 50.5 20.3 50.5 49.5-.3 29.6-20.5 49.3-50.5 49.3M805.2 0v90.8c0 25.7-12.6 39.9-35.5 39.9-23.1 0-35.8-14.6-35.8-41V0h-32.2v90.8c0 44.5 24.6 70.1 67.6 70.1 43.3 0 68.1-26.1 68.1-71.3V0h-32.2z" fill="#006ABA"/></g></svg>
